<?xml version="1.0" encoding="UTF-8"?>
<svg id="_레이어_1" data-name="레이어 1" xmlns="http://www.w3.org/2000/svg" viewBox="0 0 518.78 169.59">
  <defs>
    <style>
      .cls-1 {
        fill: #818cf8;
      }

      .cls-1, .cls-2, .cls-3 {
        stroke-width: 0px;
      }

      .cls-2 {
        fill: none;
      }

      .cls-3 {
        fill: #334155;
      }
    </style>
  </defs>
  <line class="cls-2" x1="4" y1="0" x2="230.23"/>
  <g>
    <path class="cls-1" d="M39.83,168.02l-30.54-30.54C3.7,131.89.41,124.63.04,117.05c-.39-7.73,2.29-14.87,7.52-20.11,10.69-10.7,28.88-9.92,40.53,1.74l30.54,30.54-38.79,38.79ZM26.23,97.4c-4.85,0-9.52,1.72-13.01,5.21-3.62,3.62-5.46,8.61-5.19,14.05.28,5.59,2.74,10.98,6.93,15.17l24.88,24.88,27.48-27.48-24.88-24.88c-4.6-4.6-10.53-6.95-16.2-6.95Z"/>
    <path class="cls-1" d="M71.4,168.02l-38.79-38.79,30.54-30.54c11.65-11.65,29.84-12.43,40.53-1.74h0s0,0,0,0c5.23,5.23,7.91,12.38,7.52,20.11-.38,7.58-3.67,14.83-9.26,20.43l-30.54,30.54ZM43.92,129.22l27.48,27.48,24.88-24.88c4.19-4.19,6.65-9.58,6.93-15.17.27-5.44-1.57-10.43-5.19-14.05h0c-7.58-7.58-20.68-6.8-29.22,1.74l-24.88,24.88Z"/>
  </g>
  <g>
    <path class="cls-3" d="M132.43,153.75v-43.42h-14.83v-6.98h38.23v6.98h-14.83v43.42h-8.57Z"/>
    <path class="cls-3" d="M162.67,111.7c-1.58,0-2.89-.49-3.92-1.48-1.03-.98-1.55-2.2-1.55-3.64s.51-2.7,1.55-3.64c1.03-.94,2.34-1.4,3.92-1.4s2.89.47,3.92,1.4,1.55,2.15,1.55,3.64-.52,2.65-1.55,3.64c-1.03.98-2.34,1.48-3.92,1.48ZM158.35,153.75v-36.29h8.64v36.29h-8.64Z"/>
    <path class="cls-3" d="M172.31,153.75v-36.29h7.63l.72,4.97c1.15-1.82,2.68-3.25,4.57-4.28,1.9-1.03,4.07-1.55,6.52-1.55,1.82,0,3.47.24,4.93.72,1.46.48,2.76,1.2,3.89,2.16,1.13.96,2.05,2.16,2.77,3.6,1.34-2.02,3.1-3.6,5.26-4.75,2.16-1.15,4.51-1.73,7.06-1.73,3.02,0,5.59.61,7.7,1.84,2.11,1.22,3.72,3.02,4.82,5.4,1.1,2.38,1.66,5.29,1.66,8.75v21.17h-8.57v-20.3c0-3.07-.62-5.42-1.87-7.06-1.25-1.63-3.1-2.45-5.54-2.45-1.68,0-3.16.41-4.43,1.22-1.27.82-2.27,2-2.99,3.56-.72,1.56-1.08,3.47-1.08,5.72v19.3h-8.57v-20.3c0-3.07-.62-5.42-1.87-7.06-1.25-1.63-3.12-2.45-5.62-2.45-1.58,0-3.01.41-4.28,1.22-1.27.82-2.27,2-2.99,3.56-.72,1.56-1.08,3.47-1.08,5.72v19.3h-8.64Z"/>
    <path class="cls-3" d="M251.3,154.61c-3.6,0-6.77-.78-9.5-2.34-2.74-1.56-4.87-3.76-6.41-6.59-1.54-2.83-2.3-6.1-2.3-9.79s.76-7.2,2.27-10.08,3.65-5.14,6.41-6.77c2.76-1.63,5.96-2.45,9.61-2.45s6.65.79,9.29,2.38c2.64,1.58,4.68,3.71,6.12,6.37,1.44,2.66,2.16,5.65,2.16,8.96v1.58c0,.58-.05,1.18-.14,1.8h-29.52v-5.54h20.95c-.1-2.64-.98-4.72-2.66-6.23-1.68-1.51-3.77-2.27-6.26-2.27-1.78,0-3.41.41-4.9,1.22-1.49.82-2.66,2.03-3.53,3.64-.86,1.61-1.3,3.64-1.3,6.08v2.09c0,2.26.42,4.2,1.26,5.83.84,1.63,1.99,2.87,3.46,3.71s3.11,1.26,4.93,1.26c2.02,0,3.68-.43,5-1.3,1.32-.86,2.29-2.02,2.92-3.46h8.78c-.67,2.26-1.78,4.28-3.31,6.08s-3.43,3.22-5.69,4.25c-2.26,1.03-4.8,1.55-7.63,1.55Z"/>
    <path class="cls-3" d="M294.93,154.61c-4.99,0-9.3-1.09-12.92-3.28-3.62-2.18-6.41-5.23-8.35-9.14-1.94-3.91-2.92-8.44-2.92-13.57s.97-9.73,2.92-13.64c1.94-3.91,4.73-6.97,8.35-9.18,3.62-2.21,7.93-3.31,12.92-3.31,6,0,10.9,1.48,14.69,4.43,3.79,2.95,6.19,7.12,7.2,12.49h-9.5c-.67-2.83-2.04-5.06-4.1-6.7-2.06-1.63-4.85-2.45-8.35-2.45-3.17,0-5.89.73-8.17,2.2-2.28,1.46-4.03,3.58-5.26,6.34-1.22,2.76-1.84,6.04-1.84,9.83s.61,7.04,1.84,9.76c1.22,2.71,2.98,4.8,5.26,6.26,2.28,1.46,5,2.2,8.17,2.2,3.5,0,6.29-.76,8.35-2.27,2.06-1.51,3.43-3.61,4.1-6.3h9.5c-.96,5.09-3.35,9.08-7.16,11.99-3.82,2.91-8.72,4.36-14.72,4.36Z"/>
    <path class="cls-3" d="M332.37,154.61c-2.98,0-5.45-.5-7.42-1.51-1.97-1.01-3.43-2.35-4.39-4.03-.96-1.68-1.44-3.5-1.44-5.47,0-2.3.59-4.3,1.76-5.98,1.18-1.68,2.92-2.99,5.22-3.92,2.3-.94,5.14-1.4,8.5-1.4h9.14c0-1.92-.26-3.52-.79-4.79-.53-1.27-1.34-2.22-2.45-2.84-1.1-.62-2.52-.94-4.25-.94-1.97,0-3.65.44-5.04,1.33-1.39.89-2.26,2.24-2.59,4.07h-8.5c.29-2.59,1.15-4.81,2.59-6.66,1.44-1.85,3.35-3.29,5.72-4.32,2.38-1.03,4.98-1.55,7.81-1.55,3.41,0,6.31.59,8.71,1.76,2.4,1.18,4.24,2.86,5.51,5.04,1.27,2.19,1.91,4.81,1.91,7.88v22.46h-7.34l-.86-5.83c-.48.96-1.09,1.85-1.84,2.66-.74.82-1.6,1.52-2.56,2.12-.96.6-2.05,1.07-3.28,1.4-1.22.33-2.6.5-4.14.5ZM334.31,147.77c1.39,0,2.63-.25,3.71-.76s2.02-1.22,2.81-2.16c.79-.94,1.4-1.98,1.84-3.13.43-1.15.72-2.38.86-3.67v-.14h-7.99c-1.68,0-3.07.22-4.18.65-1.1.43-1.9,1.02-2.38,1.76-.48.75-.72,1.62-.72,2.63s.24,1.87.72,2.59c.48.72,1.18,1.27,2.09,1.66.91.38,1.99.58,3.24.58Z"/>
    <path class="cls-3" d="M356.92,169.59v-52.13h7.7l.94,5.26c.77-1.06,1.69-2.05,2.77-2.99s2.4-1.69,3.96-2.27c1.56-.58,3.35-.86,5.36-.86,3.41,0,6.42.84,9.04,2.52,2.62,1.68,4.67,3.95,6.16,6.8,1.49,2.86,2.23,6.11,2.23,9.76s-.76,6.9-2.27,9.76c-1.51,2.86-3.58,5.1-6.19,6.73-2.62,1.63-5.61,2.45-8.96,2.45-2.74,0-5.12-.52-7.16-1.55-2.04-1.03-3.68-2.51-4.93-4.43v20.95h-8.64ZM375.86,147.13c2.02,0,3.82-.48,5.4-1.44,1.58-.96,2.82-2.3,3.71-4.03.89-1.73,1.33-3.72,1.33-5.98s-.44-4.32-1.33-6.05c-.89-1.73-2.12-3.07-3.71-4.03-1.58-.96-3.38-1.44-5.4-1.44s-3.88.48-5.44,1.44c-1.56.96-2.78,2.3-3.67,4.03-.89,1.73-1.33,3.72-1.33,5.98s.44,4.31,1.33,6.01c.89,1.7,2.11,3.05,3.67,4.03,1.56.98,3.37,1.48,5.44,1.48Z"/>
    <path class="cls-3" d="M413.22,154.61c-3.22,0-6.01-.52-8.39-1.55-2.38-1.03-4.25-2.47-5.62-4.32-1.37-1.85-2.17-3.97-2.41-6.37h8.64c.24,1.01.67,1.93,1.3,2.77.62.84,1.48,1.5,2.56,1.98,1.08.48,2.36.72,3.85.72s2.62-.2,3.53-.61c.91-.41,1.58-.95,2.02-1.62.43-.67.65-1.39.65-2.16,0-1.15-.31-2.04-.94-2.66-.62-.62-1.52-1.12-2.7-1.48-1.18-.36-2.58-.71-4.21-1.04-1.73-.34-3.4-.76-5-1.26-1.61-.5-3.05-1.14-4.32-1.91-1.27-.77-2.28-1.75-3.02-2.95-.74-1.2-1.12-2.66-1.12-4.39,0-2.11.56-4.01,1.69-5.69,1.13-1.68,2.76-3.01,4.9-4,2.13-.98,4.69-1.48,7.67-1.48,4.22,0,7.6.97,10.12,2.92,2.52,1.94,4,4.67,4.43,8.17h-8.21c-.24-1.34-.91-2.39-2.02-3.13-1.1-.74-2.57-1.12-4.39-1.12s-3.3.35-4.28,1.04c-.98.7-1.48,1.62-1.48,2.77,0,.77.3,1.44.9,2.02.6.58,1.48,1.07,2.63,1.48,1.15.41,2.57.8,4.25,1.19,2.69.53,5.06,1.15,7.13,1.87,2.06.72,3.7,1.78,4.9,3.17,1.2,1.39,1.8,3.36,1.8,5.9.05,2.3-.54,4.34-1.76,6.12-1.22,1.78-2.94,3.16-5.15,4.14-2.21.98-4.85,1.48-7.92,1.48Z"/>
    <path class="cls-3" d="M445.19,154.61c-2.93,0-5.44-.59-7.52-1.76-2.09-1.18-3.68-2.95-4.79-5.33s-1.66-5.32-1.66-8.82v-21.24h8.64v20.38c0,3.12.66,5.48,1.98,7.09,1.32,1.61,3.32,2.41,6.01,2.41,1.73,0,3.28-.41,4.64-1.22,1.37-.82,2.45-2,3.24-3.56s1.19-3.47,1.19-5.72v-19.37h8.64v36.29h-7.63l-.65-6.05c-1.1,2.11-2.7,3.79-4.79,5.04s-4.52,1.87-7.31,1.87Z"/>
    <path class="cls-3" d="M470.54,153.75v-51.84h8.64v51.84h-8.64Z"/>
    <path class="cls-3" d="M501.14,154.61c-3.6,0-6.77-.78-9.5-2.34-2.74-1.56-4.87-3.76-6.41-6.59-1.54-2.83-2.3-6.1-2.3-9.79s.76-7.2,2.27-10.08,3.65-5.14,6.41-6.77c2.76-1.63,5.96-2.45,9.61-2.45s6.65.79,9.29,2.38c2.64,1.58,4.68,3.71,6.12,6.37,1.44,2.66,2.16,5.65,2.16,8.96v1.58c0,.58-.05,1.18-.14,1.8h-29.52v-5.54h20.95c-.1-2.64-.98-4.72-2.66-6.23-1.68-1.51-3.77-2.27-6.26-2.27-1.78,0-3.41.41-4.9,1.22-1.49.82-2.66,2.03-3.53,3.64-.86,1.61-1.3,3.64-1.3,6.08v2.09c0,2.26.42,4.2,1.26,5.83.84,1.63,1.99,2.87,3.46,3.71s3.11,1.26,4.93,1.26c2.02,0,3.68-.43,5-1.3,1.32-.86,2.29-2.02,2.92-3.46h8.78c-.67,2.26-1.78,4.28-3.31,6.08s-3.43,3.22-5.69,4.25c-2.26,1.03-4.8,1.55-7.63,1.55Z"/>
  </g>
</svg>